<svg xmlns="http://www.w3.org/2000/svg" version="1.1" xmlns:xlink="http://www.w3.org/1999/xlink" xmlns:svgjs="http://svgjs.dev/svgjs" width="1000" height="1000"><g clip-path="url(#SvgjsClipPath1106)"><rect width="1000" height="1000" fill="#ffffff"></rect><g transform="matrix(1.3671875,0,0,1.3671875,150,150)"><svg xmlns="http://www.w3.org/2000/svg" version="1.1" xmlns:xlink="http://www.w3.org/1999/xlink" xmlns:svgjs="http://svgjs.dev/svgjs" width="512" height="512"><svg xmlns="http://www.w3.org/2000/svg" viewBox="0 0 512 512">
    <path fill="#0d6efd" d="M240.1 4.2c9.8-5.6 21.9-5.6 31.8 0l171.8 98.1c4.9 2.8 7.9 8 7.9 13.7v65.5c0 8.8-7.2 16-16 16h-16V352h32c8.8 0 16 7.2 16 16v64c0 8.8-7.2 16-16 16H64c-8.8 0-16-7.2-16-16V368c0-8.8 7.2-16 16-16h32V197.5h-16c-8.8 0-16-7.2-16-16V116c0-5.7 3-10.9 7.9-13.7L240.1 4.2zM256 32L84.2 130.1v35.4h16c8.8 0 16 7.2 16 16V352h64V197.5c0-8.8 7.2-16 16-16h96c8.8 0 16 7.2 16 16V352h64V181.5c0-8.8 7.2-16 16-16h16v-35.4L256 32zm64 144H192V352h128V176z"></path>
</svg></svg></g></g><defs><clipPath id="SvgjsClipPath1106"><rect width="1000" height="1000" x="0" y="0" rx="100" ry="100"></rect></clipPath></defs></svg>