<?xml version="1.0" encoding="UTF-8"?>
<svg xmlns="http://www.w3.org/2000/svg" viewBox="0 0 512 512">
    <path fill="#0d6efd" d="M240.1 4.2c9.8-5.6 21.9-5.6 31.8 0l171.8 98.1c4.9 2.8 7.9 8 7.9 13.7v65.5c0 8.8-7.2 16-16 16h-16V352h32c8.8 0 16 7.2 16 16v64c0 8.8-7.2 16-16 16H64c-8.8 0-16-7.2-16-16V368c0-8.8 7.2-16 16-16h32V197.5h-16c-8.8 0-16-7.2-16-16V116c0-5.7 3-10.9 7.9-13.7L240.1 4.2zM256 32L84.2 130.1v35.4h16c8.8 0 16 7.2 16 16V352h64V197.5c0-8.8 7.2-16 16-16h96c8.8 0 16 7.2 16 16V352h64V181.5c0-8.8 7.2-16 16-16h16v-35.4L256 32zm64 144H192V352h128V176z"/>
</svg> 